<svg width="64" height="49" viewBox="0 0 64 49" fill="none" xmlns="http://www.w3.org/2000/svg">
<path d="M24.0469 26.9739V31.8389C24.0469 33.7482 27.0398 33.7514 27.0398 31.8389V26.9739C27.0398 25.0646 24.0469 25.0615 24.0469 26.9739Z" fill="#F3FAFF"/>
<path d="M35.2205 26.9739V31.8389C35.2205 33.7482 38.2134 33.7514 38.2134 31.8389V26.9739C38.2134 25.0646 35.2205 25.0615 35.2205 26.9739Z" fill="#F3FAFF"/>
<path d="M47.4593 20.8286C43.5693 18.9556 39.6794 17.0826 35.7893 15.2095C34.8702 14.767 33.9525 14.318 32.9563 14.0667C30.4885 13.4444 27.9352 13.7808 25.6647 14.89C23.9248 15.74 22.2034 16.6298 20.4735 17.4994C18.4763 18.5034 16.479 19.5072 14.4819 20.5112H15.9924C13.3002 19.2979 10.6079 18.0845 7.91565 16.8712C6.521 16.2427 5.12635 15.6141 3.7317 14.9856C3.61274 14.9319 3.49101 14.8822 3.37403 14.8243C3.35855 14.8167 3.34215 14.8108 3.32666 14.803C3.22042 14.7494 3.11387 14.6995 3.01744 14.6284C3.1893 14.7549 3.01437 14.5303 3.0202 14.591C3.03583 14.7544 2.97727 14.2744 2.99122 14.5615C2.99199 14.5763 3.02756 14.1266 2.99337 14.2946C2.98938 14.3139 3.12951 14.1335 3.07953 14.175C3.03982 14.208 3.29431 14.0511 3.41359 13.9945C5.56804 12.9737 7.79776 12.0854 9.98394 11.1335C13.6473 9.53828 17.3107 7.94317 20.974 6.3479C23.0885 5.42722 25.1868 4.44498 27.3261 3.58191C29.4698 2.71702 31.7523 2.76551 33.8983 3.58252C34.5891 3.84548 35.2771 4.11529 35.9666 4.38175C42.771 7.01109 49.5755 9.64028 56.3799 12.2696C57.4845 12.6964 58.5891 13.1233 59.6935 13.5501C59.9492 13.6489 60.2033 13.7544 60.4615 13.8468C60.5734 13.8869 60.6375 13.9663 60.3666 13.8056C60.6442 13.9704 60.6749 13.9404 60.8726 14.1873C60.7662 14.0546 60.9077 14.2759 60.9125 14.2855C60.8458 14.1519 61.0105 14.5915 61.0207 14.677C61.0088 14.5776 61.0172 14.5193 61.0023 14.7541C60.9763 15.1683 61.094 14.5873 60.9599 14.9839C60.8923 15.1835 60.937 15.1379 60.7764 15.3062C60.6568 15.4313 60.5606 15.4784 60.3873 15.5787C59.8393 15.8962 59.2847 16.2031 58.7337 16.5153C57.0675 17.459 55.4013 18.4028 53.7352 19.3464C53.4085 19.5314 53.0818 19.7165 52.7551 19.9015C52.2991 20.1598 52.0132 20.6641 52.014 21.1826C52.0201 25.3415 52.0261 29.5003 52.0322 33.6593C52.0332 34.2513 52.0339 34.8434 52.0348 35.4354C52.0376 37.3446 55.0305 37.3481 55.0277 35.4354C55.0216 31.2765 55.0156 27.1177 55.0095 22.9587C55.0086 22.3667 55.0078 21.7746 55.0069 21.1826C54.7599 21.6096 54.5128 22.0367 54.2658 22.4637C56.1053 21.4218 57.9449 20.3799 59.7844 19.338C60.5242 18.9191 61.278 18.518 62.0062 18.0796C63.5871 17.1279 64.4268 15.2072 63.7812 13.4314C63.1099 11.5847 61.4578 11.0633 59.8122 10.4273C57.8491 9.6687 55.8858 8.91021 53.9227 8.15156C48.8997 6.21064 43.8768 4.26972 38.8538 2.3288C37.5099 1.80956 36.1671 1.28713 34.8221 0.77093C31.8257 -0.379121 28.6658 -0.20751 25.7407 1.05274C21.9975 2.66549 18.2668 4.30727 14.5299 5.93445C10.4442 7.71349 6.35849 9.49268 2.27297 11.2717C1.57051 11.5775 0.960954 11.9617 0.521111 12.6253C-0.55389 14.2475 0.107484 16.5106 1.83374 17.3731C3.49729 18.2041 5.23934 18.9079 6.93494 19.672C9.19425 20.6903 11.4537 21.7085 13.713 22.7266C14.4848 23.0744 15.1538 23.4658 16.0261 23.0568C16.6559 22.7614 17.2715 22.4308 17.8928 22.1185C20.2848 20.9161 22.6765 19.7139 25.0684 18.5116C25.7471 18.1705 26.424 17.8258 27.1044 17.4882C28.7476 16.6731 30.6383 16.4935 32.4058 16.9934C34.1834 17.4961 35.8822 18.5432 37.5338 19.3385C39.8864 20.4712 42.2389 21.6039 44.5914 22.7367C45.0441 22.9546 45.497 23.1728 45.9497 23.3907C46.6762 23.7406 47.5673 23.5871 47.9971 22.8584C48.3813 22.2072 48.1903 21.18 47.4603 20.8284L47.4593 20.8286Z" fill="#F3FAFF"/>
<path d="M13.847 27.3981C13.8343 29.4111 13.8214 31.4241 13.8087 33.437C13.8025 34.4054 13.7446 35.3851 13.9661 36.3372C14.4676 38.4926 16.0962 39.8287 18.0685 40.6301C26.1693 43.9212 35.5078 43.995 43.6587 40.825C44.7015 40.4194 45.6949 40.0203 46.5511 39.2849C47.4253 38.534 48.0769 37.4456 48.3468 36.3322C48.6659 35.0166 48.5248 33.589 48.5264 32.2478C48.5282 30.6692 48.5299 29.0908 48.5317 27.5123C48.5339 25.6028 45.5411 25.5999 45.5388 27.5123C45.5361 29.9755 45.6008 32.4493 45.5304 34.9114C45.4856 36.479 44.4053 37.3506 43.1247 37.8606C39.4782 39.3131 35.5949 40.1266 31.6635 40.1919C27.7015 40.2575 23.7779 39.5775 20.0586 38.2278C18.7406 37.7495 17.3424 37.2973 16.9037 35.7491C16.7128 35.0755 16.7957 34.3072 16.8002 33.6135C16.8134 31.5417 16.8266 29.4698 16.8396 27.398C16.8517 25.4882 13.859 25.4861 13.8467 27.398L13.847 27.3981Z" fill="#F3FAFF"/>
<path d="M52.3052 41.0638L51.0312 44.1864C50.3131 45.9463 51.5339 47.9483 53.4473 48.0201C53.5103 48.0225 53.5737 48.0228 53.6373 48.0211C53.6984 48.0196 53.7595 48.0161 53.8199 48.0109C55.6602 47.8516 56.7859 45.9165 56.1056 44.2136L54.8509 41.0731C54.3952 39.9326 52.7692 39.9267 52.3052 41.064V41.0638Z" fill="#F3FAFF"/>
<path d="M51.5834 40.8656C51.1632 41.8956 50.7146 42.9184 50.3216 43.9587C49.6053 45.8539 50.6352 48.1144 52.6586 48.6474C54.8699 49.2298 57.0414 47.5107 57.052 45.2649C57.0582 43.9412 56.2382 42.5422 55.7585 41.3414C55.4697 40.6183 55.1652 39.9546 54.3864 39.6367C53.3379 39.2085 52.1445 39.6798 51.6589 40.6884C51.246 41.5457 52.5358 42.2993 52.951 41.4371C53.2631 40.7891 53.9197 40.8519 54.1986 41.4431C54.4618 42.0012 54.6611 42.6009 54.89 43.1736C55.403 44.4574 56.1433 46.105 54.5509 47.022C53.7039 47.5098 52.5919 47.2824 52.0006 46.5137C51.4778 45.8341 51.4979 45.03 51.7985 44.2694C52.1967 43.2621 52.6172 42.263 53.0264 41.2599C53.3874 40.3751 51.9405 39.9902 51.5834 40.8654V40.8656Z" fill="#F3FAFF"/>
<path d="M53.5294 48.0963C54.8895 48.0963 55.9922 46.4068 55.9922 44.3227C55.9922 42.2386 54.8895 40.5491 53.5294 40.5491C52.1693 40.5491 51.0667 42.2386 51.0667 44.3227C51.0667 46.4068 52.1693 48.0963 53.5294 48.0963Z" fill="#F3FAFF"/>
</svg>
